<?xml version="1.0"?>
<svg xmlns="http://www.w3.org/2000/svg" viewBox="0 0 256 256" width="256" height="256"><title>Tooldash</title><defs><mask id="td" maskUnits="userSpaceOnUse" x="0" y="0" width="256" height="256"><rect width="256" height="256" fill="#fff"></rect><g transform="translate(120.35 128) skewX(-15) translate(-36.00 -39.00)" fill="#000" fill-rule="evenodd"><path d="M 0.00 4.00 Q 0.00 0.00 4.00 0.00 L 47.00 0.00 Q 51.00 0.00 51.00 4.00 L 51.00 17.00 Q 51.00 21.00 47.00 21.00 L 40.00 21.00 Q 36.00 21.00 36.00 25.00 L 36.00 74.00 Q 36.00 78.00 32.00 78.00 L 19.00 78.00 Q 15.00 78.00 15.00 74.00 L 15.00 25.00 Q 15.00 21.00 11.00 21.00 L 4.00 21.00 Q 0.00 21.00 0.00 17.00 Z"></path><g transform="translate(41 0)"><path d="M0 0 H27 C 61 0 61 78 27 78 H0 V57 H23 C 39 57 39 21 23 21 H0 Z"></path></g></g></mask><linearGradient id="tg" gradientUnits="userSpaceOnUse" x1="73.90" y1="0" x2="186.80" y2="0"><stop offset="0" stop-color="#19b877" stop-opacity="0"></stop><stop offset="0.2" stop-color="#19b877" stop-opacity="0"></stop><stop offset="1" stop-color="#19b877" stop-opacity="1"></stop></linearGradient><mask id="tdfill" maskUnits="userSpaceOnUse" x="0" y="0" width="256" height="256"><rect width="256" height="256" fill="#000"></rect><g transform="translate(120.35 128) skewX(-15) translate(-36.00 -39.00)" fill="#fff" fill-rule="evenodd"><path d="M 0.00 4.00 Q 0.00 0.00 4.00 0.00 L 47.00 0.00 Q 51.00 0.00 51.00 4.00 L 51.00 17.00 Q 51.00 21.00 47.00 21.00 L 40.00 21.00 Q 36.00 21.00 36.00 25.00 L 36.00 74.00 Q 36.00 78.00 32.00 78.00 L 19.00 78.00 Q 15.00 78.00 15.00 74.00 L 15.00 25.00 Q 15.00 21.00 11.00 21.00 L 4.00 21.00 Q 0.00 21.00 0.00 17.00 Z"></path><g transform="translate(41 0)"><path d="M0 0 H27 C 61 0 61 78 27 78 H0 V57 H23 C 39 57 39 21 23 21 H0 Z"></path></g></g></mask></defs><g mask="url(#td)"><path d="M 124.99 62.71 Q 129.99 62.71 132.09 58.17 L 135.71 50.37 Q 137.81 45.84 142.51 47.55 L 155.09 52.12 Q 159.79 53.83 158.48 58.66 L 156.24 66.96 Q 154.93 71.79 158.76 75.00 L 165.87 80.97 Q 169.70 84.18 174.23 82.06 L 182.02 78.41 Q 186.54 76.28 189.04 80.61 L 195.73 92.20 Q 198.23 96.53 194.13 99.39 L 187.08 104.31 Q 182.98 107.17 183.84 112.09 L 185.46 121.23 Q 186.32 126.16 191.16 127.44 L 199.47 129.65 Q 204.30 130.93 203.43 135.86 L 201.11 149.03 Q 200.24 153.96 195.26 153.51 L 186.70 152.74 Q 181.72 152.30 179.22 156.63 L 174.57 164.67 Q 172.07 169.00 174.95 173.09 L 179.90 180.12 Q 182.77 184.21 178.94 187.42 L 168.69 196.02 Q 164.86 199.24 161.34 195.69 L 155.27 189.60 Q 151.74 186.06 147.04 187.77 L 138.32 190.94 Q 133.62 192.65 133.20 197.63 L 132.47 206.20 Q 132.04 211.18 127.04 211.18 L 113.66 211.18 Q 108.66 211.18 108.23 206.20 L 107.50 197.63 Q 107.08 192.65 102.38 190.94 L 93.66 187.77 Q 88.96 186.06 85.43 189.60 L 79.36 195.69 Q 75.84 199.24 72.01 196.02 L 61.76 187.42 Q 57.93 184.21 60.80 180.12 L 65.75 173.09 Q 68.63 169.00 66.13 164.67 L 61.48 156.63 Q 58.98 152.30 54.00 152.74 L 45.44 153.51 Q 40.46 153.96 39.59 149.03 L 37.27 135.86 Q 36.40 130.93 41.23 129.65 L 49.54 127.44 Q 54.38 126.16 55.24 121.23 L 56.86 112.09 Q 57.72 107.17 53.62 104.31 L 46.57 99.39 Q 42.47 96.53 44.97 92.20 L 51.66 80.61 Q 54.16 76.28 58.68 78.41 L 66.47 82.06 Q 71.00 84.18 74.83 80.97 L 81.94 75.00 Q 85.77 71.79 84.46 66.96 L 82.22 58.66 Q 80.91 53.83 85.61 52.12 L 98.19 47.55 Q 102.89 45.84 104.99 50.37 L 108.61 58.17 Q 110.71 62.71 115.71 62.71 Z" fill="#ffffff"></path><path d="M 120.35 44.09 Q 120.35 40.00 123.73 37.71 L 123.73 37.71 Q 127.12 35.42 130.98 34.07 L 130.98 34.07 Q 134.84 32.73 138.91 32.42 L 138.91 32.42 Q 142.99 32.11 147.00 32.86 L 147.00 32.86 Q 151.02 33.61 154.71 35.36 L 154.71 35.36 Q 158.40 37.12 161.52 39.76 L 161.52 39.76 Q 164.63 42.41 166.96 45.76 L 166.96 45.76 Q 169.29 49.12 170.68 52.96 L 170.68 52.96 Q 172.08 56.81 176.16 56.94 L 176.16 56.94 Q 180.24 57.08 184.16 58.26 L 184.16 58.26 Q 188.07 59.44 191.55 61.58 L 191.55 61.58 Q 195.03 63.73 197.84 66.69 L 197.84 66.69 Q 200.65 69.66 202.60 73.25 L 202.60 73.25 Q 204.55 76.84 205.52 80.81 L 205.52 80.81 Q 206.48 84.78 206.40 88.87 L 206.40 88.87 Q 206.31 92.95 205.18 96.88 L 205.18 96.88 Q 204.04 100.81 207.27 103.32 L 207.27 103.32 Q 210.49 105.83 212.96 109.08 L 212.96 109.08 Q 215.44 112.34 216.99 116.12 L 216.99 116.12 Q 218.54 119.90 219.07 123.95 L 219.07 123.95 Q 219.60 128.00 219.07 132.05 L 219.07 132.05 Q 218.54 136.10 216.99 139.88 L 216.99 139.88 Q 215.44 143.66 212.96 146.92 L 212.96 146.92 Q 210.49 150.17 207.27 152.68 L 207.27 152.68 Q 204.04 155.19 205.18 159.12 L 205.18 159.12 Q 206.31 163.05 206.40 167.13 L 206.40 167.13 Q 206.48 171.22 205.52 175.19 L 205.52 175.19 Q 204.55 179.16 202.60 182.75 L 202.60 182.75 Q 200.65 186.34 197.84 189.31 L 197.84 189.31 Q 195.03 192.27 191.55 194.42 L 191.55 194.42 Q 188.07 196.56 184.16 197.74 L 184.16 197.74 Q 180.24 198.92 176.16 199.06 L 176.16 199.06 Q 172.08 199.19 170.68 203.04 L 170.68 203.04 Q 169.29 206.88 166.96 210.24 L 166.96 210.24 Q 164.63 213.59 161.52 216.24 L 161.52 216.24 Q 158.40 218.88 154.71 220.64 L 154.71 220.64 Q 151.02 222.39 147.00 223.14 L 147.00 223.14 Q 142.99 223.89 138.91 223.58 L 138.91 223.58 Q 134.84 223.27 130.98 221.93 L 130.98 221.93 Q 127.12 220.58 123.73 218.29 L 123.73 218.29 Q 120.35 216.00 120.35 211.91 Z" fill="#ffffff"></path></g><rect width="256" height="256" fill="url(#tg)" mask="url(#tdfill)"></rect></svg>